<?xml version="1.0" encoding="UTF-8" standalone="no"?>
<!DOCTYPE svg PUBLIC "-//W3C//DTD SVG 1.1//EN"
 "http://www.w3.org/Graphics/SVG/1.1/DTD/svg11.dtd">
<!-- Generated by graphviz version 2.40.1 (20161225.0304)
 -->
<!-- Title: G Pages: 1 -->
<svg width="287pt" height="264pt"
 viewBox="0.00 0.00 287.09 264.00" xmlns="http://www.w3.org/2000/svg" xmlns:xlink="http://www.w3.org/1999/xlink">
<g id="graph0" class="graph" transform="scale(1 1) rotate(0) translate(4 260)">
<title>G</title>
<polygon fill="#ffffff" stroke="transparent" points="-4,4 -4,-260 283.0873,-260 283.0873,4 -4,4"/>
<!-- a -->
<g id="node1" class="node">
<title>a</title>
<polygon fill="none" stroke="#000000" points="250,-256 106,-256 106,-218 250,-218 250,-256"/>
<text text-anchor="start" x="114" y="-240.8" font-family="Times,serif" font-size="14.00" fill="#000000"> const MArray(UInt8) </text>
<text text-anchor="start" x="134.5" y="-225.8" font-family="Times,serif" font-size="14.00" fill="#000000"> &quot;string literal&quot; </text>
</g>
<!-- b -->
<g id="node2" class="node">
<title>b</title>
<polygon fill="none" stroke="#000000" points="191.5,-182 80.5,-182 80.5,-146 191.5,-146 191.5,-182"/>
<text text-anchor="start" x="88.5" y="-160.3" font-family="Times,serif" font-size="14.00" fill="#000000"> MArray(UInt8) </text>
</g>
<!-- a&#45;&gt;b -->
<g id="edge1" class="edge">
<title>a&#45;&gt;b</title>
<path fill="none" stroke="#ff0000" d="M166.965,-217.8201C162.275,-209.6684 156.7217,-200.0164 151.6221,-191.1528"/>
<polygon fill="#ff0000" stroke="#ff0000" points="154.548,-189.2197 146.5272,-182.2973 148.4805,-192.7106 154.548,-189.2197"/>
</g>
<!-- c -->
<g id="node3" class="node">
<title>c</title>
<polygon fill="none" stroke="#000000" points="106,-109 0,-109 0,-73 106,-73 106,-109"/>
<text text-anchor="start" x="8" y="-87.3" font-family="Times,serif" font-size="14.00" fill="#000000"> MSlice(UInt8) </text>
</g>
<!-- a&#45;&gt;c -->
<g id="edge2" class="edge">
<title>a&#45;&gt;c</title>
<path fill="none" stroke="#ff0000" d="M119.6359,-217.9844C101.9429,-209.5552 84.0293,-197.8567 72,-182 58.42,-164.0993 53.9911,-138.7555 52.7763,-119.3582"/>
<polygon fill="#ff0000" stroke="#ff0000" points="56.2706,-119.1389 52.3945,-109.2787 49.2757,-119.404 56.2706,-119.1389"/>
</g>
<!-- d -->
<g id="node4" class="node">
<title>d</title>
<polygon fill="none" stroke="#000000" points="185.5,-36 82.5,-36 82.5,0 185.5,0 185.5,-36"/>
<text text-anchor="start" x="90.5" y="-14.3" font-family="Times,serif" font-size="14.00" fill="#000000"> CSlice(UInt8) </text>
</g>
<!-- a&#45;&gt;d -->
<g id="edge3" class="edge">
<title>a&#45;&gt;d</title>
<path fill="none" stroke="#00ff00" d="M202.6436,-217.7844C239.9578,-186.3116 303.0211,-122.2502 269,-72 252.4257,-47.5191 222.7615,-34.1357 195.4533,-26.8196"/>
<polygon fill="#00ff00" stroke="#00ff00" points="196.0731,-23.3681 185.5277,-24.3894 194.4084,-30.1672 196.0731,-23.3681"/>
</g>
<!-- e -->
<g id="node5" class="node">
<title>e</title>
<polygon fill="none" stroke="#000000" points="260,-110 162,-110 162,-72 260,-72 260,-110"/>
<text text-anchor="start" x="170" y="-94.8" font-family="Times,serif" font-size="14.00" fill="#000000"> Array(UInt8) </text>
<text text-anchor="start" x="190" y="-79.8" font-family="Times,serif" font-size="14.00" fill="#000000"> String </text>
</g>
<!-- a&#45;&gt;e -->
<g id="edge4" class="edge">
<title>a&#45;&gt;e</title>
<path fill="none" stroke="#ff0000" d="M187.5956,-217.8702C192.3824,-207.5041 197.8163,-194.3259 201,-182 206.2252,-161.7699 208.721,-138.32 209.9126,-120.2919"/>
<polygon fill="#ff0000" stroke="#ff0000" points="213.4183,-120.2886 210.4866,-110.1074 206.4294,-119.8946 213.4183,-120.2886"/>
</g>
<!-- b&#45;&gt;c -->
<g id="edge5" class="edge">
<title>b&#45;&gt;c</title>
<path fill="none" stroke="#00ff00" d="M115.4831,-145.9551C105.108,-136.8299 92.3584,-125.6165 81.0877,-115.7036"/>
<polygon fill="#00ff00" stroke="#00ff00" points="83.3889,-113.0665 73.5685,-109.0904 78.7659,-118.3228 83.3889,-113.0665"/>
</g>
<!-- b&#45;&gt;d -->
<g id="edge6" class="edge">
<title>b&#45;&gt;d</title>
<path fill="none" stroke="#00ff00" d="M135.7507,-145.8042C135.4094,-120.8868 134.7931,-75.8938 134.3902,-46.4877"/>
<polygon fill="#00ff00" stroke="#00ff00" points="137.8891,-46.3762 134.2524,-36.4251 130.8898,-46.4721 137.8891,-46.3762"/>
</g>
<!-- b&#45;&gt;e -->
<g id="edge8" class="edge">
<title>b&#45;&gt;e</title>
<path fill="none" stroke="#ff0000" d="M154.5393,-145.9551C163.4576,-137.2746 174.3175,-126.7043 184.1217,-117.1616"/>
<polygon fill="#ff0000" stroke="#ff0000" points="186.6387,-119.5958 191.3635,-110.1128 181.7563,-114.5796 186.6387,-119.5958"/>
</g>
<!-- c&#45;&gt;d -->
<g id="edge7" class="edge">
<title>c&#45;&gt;d</title>
<path fill="none" stroke="#00ff00" d="M73.0225,-72.9551C83.0502,-63.9177 95.3509,-52.8319 106.2714,-42.9899"/>
<polygon fill="#00ff00" stroke="#00ff00" points="108.8419,-45.385 113.9271,-36.0904 104.1556,-40.1852 108.8419,-45.385"/>
</g>
</g>
</svg>
