<?xml version="1.0" encoding="UTF-8" standalone="no"?>
<!DOCTYPE svg PUBLIC "-//W3C//DTD SVG 1.1//EN" "http://www.w3.org/Graphics/SVG/1.1/DTD/svg11.dtd">

<svg width="120px" height="120px" viewBox="-10 -10 120 120" xmlns="http://www.w3.org/2000/svg" xmlns:xlink="http://www.w3.org/1999/xlink">

<polyline points="
0.000000,50.000000
1.269531,48.852539
1.269531,48.852539
0.854492,47.192383
0.854492,47.192383
2.368164,48.266602
2.368164,48.266602
3.100586,47.875977
3.100586,47.875977
3.051758,46.020508
3.051758,46.020508
4.199219,47.290039
4.199219,47.290039
5.859375,46.875000
5.859375,46.875000
5.444336,45.214844
5.444336,45.214844
3.784180,44.799805
3.784180,44.799805
5.444336,43.969727
5.444336,43.969727
5.444336,43.139648
5.444336,43.139648
3.784180,42.309570
3.784180,42.309570
5.444336,41.894531
5.444336,41.894531
5.859375,40.234375
5.859375,40.234375
7.373047,41.308594
7.373047,41.308594
9.033203,40.478516
9.033203,40.478516
8.251953,42.333984
8.251953,42.333984
8.837891,43.017578
8.837891,43.017578
10.791016,42.529297
10.791016,42.529297
9.716797,44.042969
9.716797,44.042969
10.546875,45.703125
10.546875,45.703125
11.279297,45.312500
11.279297,45.312500
11.279297,44.482422
11.279297,44.482422
11.865234,45.166016
11.865234,45.166016
12.255859,45.068359
12.255859,45.068359
12.451172,44.189453
12.451172,44.189453
12.841797,44.921875
12.841797,44.921875
13.671875,44.921875
13.671875,44.921875
13.623047,43.066406
13.623047,43.066406
11.962891,42.236328
11.962891,42.236328
13.916016,41.748047
13.916016,41.748047
14.111328,40.869141
14.111328,40.869141
12.548828,39.599609
12.548828,39.599609
14.404297,39.550781
14.404297,39.550781
15.234375,37.890625
15.234375,37.890625
16.381836,39.160156
16.381836,39.160156
18.041992,38.745117
18.041992,38.745117
16.967773,40.258789
16.967773,40.258789
17.358398,40.991211
17.358398,40.991211
19.213867,40.942383
19.213867,40.942383
17.944336,42.089844
17.944336,42.089844
18.359375,43.750000
18.359375,43.750000
20.019531,43.334961
20.019531,43.334961
20.434570,41.674805
20.434570,41.674805
21.264648,43.334961
21.264648,43.334961
22.094727,43.334961
22.094727,43.334961
22.924805,41.674805
22.924805,41.674805
23.339844,43.334961
23.339844,43.334961
25.000000,43.750000
25.000000,43.750000
24.584961,42.089844
24.584961,42.089844
22.924805,41.674805
22.924805,41.674805
24.584961,40.844727
24.584961,40.844727
24.584961,40.014648
24.584961,40.014648
22.924805,39.184570
22.924805,39.184570
24.584961,38.769531
24.584961,38.769531
25.000000,37.109375
25.000000,37.109375
23.339844,36.694336
23.339844,36.694336
22.192383,37.963867
22.192383,37.963867
22.241211,36.108398
22.241211,36.108398
21.508789,35.717773
21.508789,35.717773
19.995117,36.791992
19.995117,36.791992
20.410156,35.131836
20.410156,35.131836
19.140625,33.984375
19.140625,33.984375
20.800781,33.154297
20.800781,33.154297
20.849609,31.298828
20.849609,31.298828
22.119141,32.861328
22.119141,32.861328
22.998047,32.666016
22.998047,32.666016
23.486328,30.712891
23.486328,30.712891
24.316406,32.373047
24.316406,32.373047
26.171875,32.421875
26.171875,32.421875
26.171875,31.591797
26.171875,31.591797
25.439453,31.201172
25.439453,31.201172
26.318359,31.005859
26.318359,31.005859
26.416016,30.615234
26.416016,30.615234
25.732422,30.029297
25.732422,30.029297
26.562500,30.029297
26.562500,30.029297
26.953125,29.296875
26.953125,29.296875
25.292969,28.466797
25.292969,28.466797
23.779297,29.541016
23.779297,29.541016
24.267578,27.587891
24.267578,27.587891
23.583984,27.001953
23.583984,27.001953
21.728516,27.783203
21.728516,27.783203
22.558594,26.123047
22.558594,26.123047
21.484375,24.609375
21.484375,24.609375
23.144531,24.194336
23.144531,24.194336
23.559570,22.534180
23.559570,22.534180
24.389648,24.194336
24.389648,24.194336
25.219727,24.194336
25.219727,24.194336
26.049805,22.534180
26.049805,22.534180
26.464844,24.194336
26.464844,24.194336
28.125000,24.609375
28.125000,24.609375
28.540039,22.949219
28.540039,22.949219
27.270508,21.801758
27.270508,21.801758
29.125977,21.850586
29.125977,21.850586
29.516602,21.118164
29.516602,21.118164
28.442383,19.604492
28.442383,19.604492
30.102539,20.019531
30.102539,20.019531
31.250000,18.750000
31.250000,18.750000
32.763672,19.824219
32.763672,19.824219
34.423828,18.994141
34.423828,18.994141
33.642578,20.849609
33.642578,20.849609
34.228516,21.533203
34.228516,21.533203
36.181641,21.044922
36.181641,21.044922
35.107422,22.558594
35.107422,22.558594
35.937500,24.218750
35.937500,24.218750
37.597656,23.388672
37.597656,23.388672
37.646484,21.533203
37.646484,21.533203
38.916016,23.095703
38.916016,23.095703
39.794922,22.900391
39.794922,22.900391
40.283203,20.947266
40.283203,20.947266
41.113281,22.607422
41.113281,22.607422
42.968750,22.656250
42.968750,22.656250
42.187500,24.511719
42.187500,24.511719
43.457031,26.074219
43.457031,26.074219
41.308594,25.683594
41.308594,25.683594
40.722656,26.464844
40.722656,26.464844
41.699219,28.417969
41.699219,28.417969
39.843750,27.636719
39.843750,27.636719
38.281250,28.906250
38.281250,28.906250
38.867188,29.589844
38.867188,29.589844
39.746094,29.394531
39.746094,29.394531
39.160156,30.175781
39.160156,30.175781
39.355469,30.566406
39.355469,30.566406
40.332031,30.566406
40.332031,30.566406
39.648438,31.152344
39.648438,31.152344
39.843750,32.031250
39.843750,32.031250
41.796875,31.542969
41.796875,31.542969
42.285156,29.589844
42.285156,29.589844
43.261719,31.542969
43.261719,31.542969
44.238281,31.542969
44.238281,31.542969
45.214844,29.589844
45.214844,29.589844
45.703125,31.542969
45.703125,31.542969
47.656250,32.031250
47.656250,32.031250
46.582031,33.544922
46.582031,33.544922
47.412109,35.205078
47.412109,35.205078
45.556641,34.423828
45.556641,34.423828
44.873047,35.009766
44.873047,35.009766
45.361328,36.962891
45.361328,36.962891
43.847656,35.888672
43.847656,35.888672
42.187500,36.718750
42.187500,36.718750
43.017578,38.378906
43.017578,38.378906
44.873047,38.427734
44.873047,38.427734
43.310547,39.697266
43.310547,39.697266
43.505859,40.576172
43.505859,40.576172
45.458984,41.064453
45.458984,41.064453
43.798828,41.894531
43.798828,41.894531
43.750000,43.750000
43.750000,43.750000
44.482422,43.359375
44.482422,43.359375
44.482422,42.529297
44.482422,42.529297
45.068359,43.212891
45.068359,43.212891
45.458984,43.115234
45.458984,43.115234
45.654297,42.236328
45.654297,42.236328
46.044922,42.968750
46.044922,42.968750
46.875000,42.968750
46.875000,42.968750
46.875000,42.138672
46.875000,42.138672
46.142578,41.748047
46.142578,41.748047
47.021484,41.552734
47.021484,41.552734
47.119141,41.162109
47.119141,41.162109
46.435547,40.576172
46.435547,40.576172
47.265625,40.576172
47.265625,40.576172
47.656250,39.843750
47.656250,39.843750
48.242188,40.527344
48.242188,40.527344
49.121094,40.332031
49.121094,40.332031
48.535156,41.113281
48.535156,41.113281
48.730469,41.503906
48.730469,41.503906
49.707031,41.503906
49.707031,41.503906
49.023438,42.089844
49.023438,42.089844
49.218750,42.968750
49.218750,42.968750
49.609375,42.871094
49.609375,42.871094
49.707031,42.480469
49.707031,42.480469
49.902344,42.871094
49.902344,42.871094
50.097656,42.871094
50.097656,42.871094
50.292969,42.480469
50.292969,42.480469
50.390625,42.871094
50.390625,42.871094
50.781250,42.968750
50.781250,42.968750
50.976562,42.089844
50.976562,42.089844
50.292969,41.503906
50.292969,41.503906
51.269531,41.503906
51.269531,41.503906
51.464844,41.113281
51.464844,41.113281
50.878906,40.332031
50.878906,40.332031
51.757812,40.527344
51.757812,40.527344
52.343750,39.843750
52.343750,39.843750
52.734375,40.576172
52.734375,40.576172
53.564453,40.576172
53.564453,40.576172
52.880859,41.162109
52.880859,41.162109
52.978516,41.552734
52.978516,41.552734
53.857422,41.748047
53.857422,41.748047
53.125000,42.138672
53.125000,42.138672
53.125000,42.968750
53.125000,42.968750
53.955078,42.968750
53.955078,42.968750
54.345703,42.236328
54.345703,42.236328
54.541016,43.115234
54.541016,43.115234
54.931641,43.212891
54.931641,43.212891
55.517578,42.529297
55.517578,42.529297
55.517578,43.359375
55.517578,43.359375
56.250000,43.750000
56.250000,43.750000
56.201172,41.894531
56.201172,41.894531
54.541016,41.064453
54.541016,41.064453
56.494141,40.576172
56.494141,40.576172
56.689453,39.697266
56.689453,39.697266
55.126953,38.427734
55.126953,38.427734
56.982422,38.378906
56.982422,38.378906
57.812500,36.718750
57.812500,36.718750
56.152344,35.888672
56.152344,35.888672
54.638672,36.962891
54.638672,36.962891
55.126953,35.009766
55.126953,35.009766
54.443359,34.423828
54.443359,34.423828
52.587891,35.205078
52.587891,35.205078
53.417969,33.544922
53.417969,33.544922
52.343750,32.031250
52.343750,32.031250
54.296875,31.542969
54.296875,31.542969
54.785156,29.589844
54.785156,29.589844
55.761719,31.542969
55.761719,31.542969
56.738281,31.542969
56.738281,31.542969
57.714844,29.589844
57.714844,29.589844
58.203125,31.542969
58.203125,31.542969
60.156250,32.031250
60.156250,32.031250
60.351562,31.152344
60.351562,31.152344
59.667969,30.566406
59.667969,30.566406
60.644531,30.566406
60.644531,30.566406
60.839844,30.175781
60.839844,30.175781
60.253906,29.394531
60.253906,29.394531
61.132812,29.589844
61.132812,29.589844
61.718750,28.906250
61.718750,28.906250
60.156250,27.636719
60.156250,27.636719
58.300781,28.417969
58.300781,28.417969
59.277344,26.464844
59.277344,26.464844
58.691406,25.683594
58.691406,25.683594
56.542969,26.074219
56.542969,26.074219
57.812500,24.511719
57.812500,24.511719
57.031250,22.656250
57.031250,22.656250
58.886719,22.607422
58.886719,22.607422
59.716797,20.947266
59.716797,20.947266
60.205078,22.900391
60.205078,22.900391
61.083984,23.095703
61.083984,23.095703
62.353516,21.533203
62.353516,21.533203
62.402344,23.388672
62.402344,23.388672
64.062500,24.218750
64.062500,24.218750
64.892578,22.558594
64.892578,22.558594
63.818359,21.044922
63.818359,21.044922
65.771484,21.533203
65.771484,21.533203
66.357422,20.849609
66.357422,20.849609
65.576172,18.994141
65.576172,18.994141
67.236328,19.824219
67.236328,19.824219
68.750000,18.750000
68.750000,18.750000
69.897461,20.019531
69.897461,20.019531
71.557617,19.604492
71.557617,19.604492
70.483398,21.118164
70.483398,21.118164
70.874023,21.850586
70.874023,21.850586
72.729492,21.801758
72.729492,21.801758
71.459961,22.949219
71.459961,22.949219
71.875000,24.609375
71.875000,24.609375
73.535156,24.194336
73.535156,24.194336
73.950195,22.534180
73.950195,22.534180
74.780273,24.194336
74.780273,24.194336
75.610352,24.194336
75.610352,24.194336
76.440430,22.534180
76.440430,22.534180
76.855469,24.194336
76.855469,24.194336
78.515625,24.609375
78.515625,24.609375
77.441406,26.123047
77.441406,26.123047
78.271484,27.783203
78.271484,27.783203
76.416016,27.001953
76.416016,27.001953
75.732422,27.587891
75.732422,27.587891
76.220703,29.541016
76.220703,29.541016
74.707031,28.466797
74.707031,28.466797
73.046875,29.296875
73.046875,29.296875
73.437500,30.029297
73.437500,30.029297
74.267578,30.029297
74.267578,30.029297
73.583984,30.615234
73.583984,30.615234
73.681641,31.005859
73.681641,31.005859
74.560547,31.201172
74.560547,31.201172
73.828125,31.591797
73.828125,31.591797
73.828125,32.421875
73.828125,32.421875
75.683594,32.373047
75.683594,32.373047
76.513672,30.712891
76.513672,30.712891
77.001953,32.666016
77.001953,32.666016
77.880859,32.861328
77.880859,32.861328
79.150391,31.298828
79.150391,31.298828
79.199219,33.154297
79.199219,33.154297
80.859375,33.984375
80.859375,33.984375
79.589844,35.131836
79.589844,35.131836
80.004883,36.791992
80.004883,36.791992
78.491211,35.717773
78.491211,35.717773
77.758789,36.108398
77.758789,36.108398
77.807617,37.963867
77.807617,37.963867
76.660156,36.694336
76.660156,36.694336
75.000000,37.109375
75.000000,37.109375
75.415039,38.769531
75.415039,38.769531
77.075195,39.184570
77.075195,39.184570
75.415039,40.014648
75.415039,40.014648
75.415039,40.844727
75.415039,40.844727
77.075195,41.674805
77.075195,41.674805
75.415039,42.089844
75.415039,42.089844
75.000000,43.750000
75.000000,43.750000
76.660156,43.334961
76.660156,43.334961
77.075195,41.674805
77.075195,41.674805
77.905273,43.334961
77.905273,43.334961
78.735352,43.334961
78.735352,43.334961
79.565430,41.674805
79.565430,41.674805
79.980469,43.334961
79.980469,43.334961
81.640625,43.750000
81.640625,43.750000
82.055664,42.089844
82.055664,42.089844
80.786133,40.942383
80.786133,40.942383
82.641602,40.991211
82.641602,40.991211
83.032227,40.258789
83.032227,40.258789
81.958008,38.745117
81.958008,38.745117
83.618164,39.160156
83.618164,39.160156
84.765625,37.890625
84.765625,37.890625
85.595703,39.550781
85.595703,39.550781
87.451172,39.599609
87.451172,39.599609
85.888672,40.869141
85.888672,40.869141
86.083984,41.748047
86.083984,41.748047
88.037109,42.236328
88.037109,42.236328
86.376953,43.066406
86.376953,43.066406
86.328125,44.921875
86.328125,44.921875
87.158203,44.921875
87.158203,44.921875
87.548828,44.189453
87.548828,44.189453
87.744141,45.068359
87.744141,45.068359
88.134766,45.166016
88.134766,45.166016
88.720703,44.482422
88.720703,44.482422
88.720703,45.312500
88.720703,45.312500
89.453125,45.703125
89.453125,45.703125
90.283203,44.042969
90.283203,44.042969
89.208984,42.529297
89.208984,42.529297
91.162109,43.017578
91.162109,43.017578
91.748047,42.333984
91.748047,42.333984
90.966797,40.478516
90.966797,40.478516
92.626953,41.308594
92.626953,41.308594
94.140625,40.234375
94.140625,40.234375
94.555664,41.894531
94.555664,41.894531
96.215820,42.309570
96.215820,42.309570
94.555664,43.139648
94.555664,43.139648
94.555664,43.969727
94.555664,43.969727
96.215820,44.799805
96.215820,44.799805
94.555664,45.214844
94.555664,45.214844
94.140625,46.875000
94.140625,46.875000
95.800781,47.290039
95.800781,47.290039
96.948242,46.020508
96.948242,46.020508
96.899414,47.875977
96.899414,47.875977
97.631836,48.266602
97.631836,48.266602
99.145508,47.192383
99.145508,47.192383
98.730469,48.852539
98.730469,48.852539
100.000000,50.000000
" stroke="green" stroke-width="2" stroke-linejoin="round" fill="none" />
<text x="7" y="80" font-size="30" font-family="Arial">MOSS</text>
</svg>
